<svg xmlns="http://www.w3.org/2000/svg" width="1200" height="900" viewBox="0 0 1200 900" role="img" aria-label="Portfolio web mockups grid">
  <defs>
    <linearGradient id="bg" x1="0" y1="0" x2="1" y2="1">
      <stop offset="0%" stop-color="#0b0b0b"/>
      <stop offset="100%" stop-color="#1f1f1f"/>
    </linearGradient>
    <linearGradient id="accent" x1="0" y1="0" x2="1" y2="0">
      <stop offset="0%" stop-color="#b05000"/>
      <stop offset="100%" stop-color="#c05000"/>
    </linearGradient>
    <style>
      .card { fill: #121212; stroke: rgba(255,255,255,0.12); }
      .bar { fill: url(#accent); }
      .title { fill: #f5f5f5; font: 600 24px 'Segoe UI', Arial, sans-serif; }
      .line { fill: #bdbdbd; }
    </style>
  </defs>
  <rect width="1200" height="900" fill="url(#bg)"/>
  <g transform="translate(40,40)">
    <g transform="translate(0,0)"><rect class="card" width="360" height="250" rx="18"/><rect class="bar" x="24" y="24" width="160" height="18" rx="9"/><rect class="line" x="24" y="70" width="300" height="10" rx="5"/><rect class="line" x="24" y="90" width="250" height="10" rx="5"/><text class="title" x="24" y="220">Model 1</text></g>
    <g transform="translate(380,0)"><rect class="card" width="360" height="250" rx="18"/><rect class="bar" x="24" y="24" width="130" height="18" rx="9"/><rect class="line" x="24" y="70" width="300" height="10" rx="5"/><rect class="line" x="24" y="90" width="220" height="10" rx="5"/><text class="title" x="24" y="220">Model 2</text></g>
    <g transform="translate(760,0)"><rect class="card" width="360" height="250" rx="18"/><rect class="bar" x="24" y="24" width="180" height="18" rx="9"/><rect class="line" x="24" y="70" width="300" height="10" rx="5"/><rect class="line" x="24" y="90" width="240" height="10" rx="5"/><text class="title" x="24" y="220">Model 3</text></g>

    <g transform="translate(0,290)"><rect class="card" width="360" height="250" rx="18"/><rect class="bar" x="24" y="24" width="150" height="18" rx="9"/><rect class="line" x="24" y="70" width="300" height="10" rx="5"/><rect class="line" x="24" y="90" width="230" height="10" rx="5"/><text class="title" x="24" y="220">Model 4</text></g>
    <g transform="translate(380,290)"><rect class="card" width="360" height="250" rx="18"/><rect class="bar" x="24" y="24" width="170" height="18" rx="9"/><rect class="line" x="24" y="70" width="300" height="10" rx="5"/><rect class="line" x="24" y="90" width="260" height="10" rx="5"/><text class="title" x="24" y="220">Model 5</text></g>
    <g transform="translate(760,290)"><rect class="card" width="360" height="250" rx="18"/><rect class="bar" x="24" y="24" width="140" height="18" rx="9"/><rect class="line" x="24" y="70" width="300" height="10" rx="5"/><rect class="line" x="24" y="90" width="210" height="10" rx="5"/><text class="title" x="24" y="220">Model 6</text></g>

    <g transform="translate(0,580)"><rect class="card" width="360" height="250" rx="18"/><rect class="bar" x="24" y="24" width="165" height="18" rx="9"/><rect class="line" x="24" y="70" width="300" height="10" rx="5"/><rect class="line" x="24" y="90" width="220" height="10" rx="5"/><text class="title" x="24" y="220">Model 7</text></g>
    <g transform="translate(380,580)"><rect class="card" width="360" height="250" rx="18"/><rect class="bar" x="24" y="24" width="145" height="18" rx="9"/><rect class="line" x="24" y="70" width="300" height="10" rx="5"/><rect class="line" x="24" y="90" width="235" height="10" rx="5"/><text class="title" x="24" y="220">Model 8</text></g>
    <g transform="translate(760,580)"><rect class="card" width="360" height="250" rx="18"/><rect class="bar" x="24" y="24" width="185" height="18" rx="9"/><rect class="line" x="24" y="70" width="300" height="10" rx="5"/><rect class="line" x="24" y="90" width="250" height="10" rx="5"/><text class="title" x="24" y="220">Model 9</text></g>
  </g>
</svg>
